<?xml version="1.0" encoding="UTF-8" standalone="no"?>
<!-- Created with Inkscape (http://www.inkscape.org/) -->

<svg
   width="512"
   height="512"
   viewBox="0 0 512 512"
   version="1.1"
   id="svg1"
   xml:space="preserve"
   inkscape:version="1.4.4 (dcaf3e7, 2026-05-05)"
   sodipodi:docname="geru_mark.svg"
   xmlns:inkscape="http://www.inkscape.org/namespaces/inkscape"
   xmlns:sodipodi="http://sodipodi.sourceforge.net/DTD/sodipodi-0.dtd"
   xmlns="http://www.w3.org/2000/svg"
   xmlns:svg="http://www.w3.org/2000/svg"
   xmlns:c2pa="http://c2pa.org/manifest"><metadata
     id="metadata1"><c2pa:manifest>AAAWgmp1bWIAAAAeanVtZGMycGEAEQAQgAAAqgA4m3EDYzJwYQAAABZcanVtYgAAAEdqdW1kYzJtYQARABCAAACqADibcQN1cm46YzJwYTpiZGNlNDRlNi1kNzg1LTRlYjQtYmY3NS1iN2YzYTVkYjc1OTYAAAADl2p1bWIAAAApanVtZGMyYXMAEQAQgAAAqgA4m3EDYzJwYS5hc3NlcnRpb25zAAAAALxqdW1iAAAARGp1bWRjYm9yABEAEIAAAKoAOJtxE2MycGEuaW5ncmVkaWVudC52MwAAAAAYYzJzaEJfUm/yUbjd0cS8WoZTZQ8AAABwY2JvcqNpZGM6Zm9ybWF0bWltYWdlL3N2Zyt4bWxqaW5zdGFuY2VJRHgseG1wOmlpZDo2ODM3Yzk5ZS04NTRiLTQzNmMtOGEwOC0xYjhiYzdkMmRkZjNscmVsYXRpb25zaGlwaHBhcmVudE9mAAAB4mp1bWIAAABBanVtZGNib3IAEQAQgAAAqgA4m3ETYzJwYS5hY3Rpb25zLnYyAAAAABhjMnNosb06FSE0tdVllTWbekAG4QAAAZljYm9yomdhY3Rpb25zgqJmYWN0aW9ua2MycGEub3BlbmVkanBhcmFtZXRlcnOha2luZ3JlZGllbnRzgaJjdXJseC1zZWxmI2p1bWJmPWMycGEuYXNzZXJ0aW9ucy9jMnBhLmluZ3JlZGllbnQudjNkaGFzaFggLVqqTgbLZKPROodHcmuL05gzdQcwBIAIkb8H7cK+OFmkZmFjdGlvbngdY29tLmFudGhyb3BpYy5jbGF1ZGUucHJvdmlkZWRqcGFyYW1ldGVyc6F4H2NvbS5hbnRocm9waWMub3JpZ2luLWNvbmZpZGVuY2VndW5rbm93bmtkZXNjcmlwdGlvbnhmQ2xhdWRlIHByb3ZpZGVkIHRoaXMgZmlsZSBhdCB0aGUgcmVxdWVzdCBvZiBhIHVzZXIgYW5kIG1heSBoYXZlIGNyZWF0ZWQgb3IgbW9kaWZpZWQgdGhlIGZpbGUgY29udGVudHMubXNvZnR3YXJlQWdlbnShZG5hbWVmQ2xhdWRlcmFsbEFjdGlvbnNJbmNsdWRlZPUAAADIanVtYgAAAEBqdW1kY2JvcgARABCAAACqADibcRNjMnBhLmhhc2guZGF0YQAAAAAYYzJzaPW3UBrBdQHG7EDLmdbO4x4AAACAY2JvcqVjYWxnZnNoYTI1NmNwYWRMAAAAAAAAAAAAAAAAZGhhc2hYIF/H93MWbIIYqdubMwUptzt0K9rv3rkS9JfqVvxPtrQ7ZG5hbWVuanVtYmYgbWFuaWZlc3RqZXhjbHVzaW9uc4GiZXN0YXJ0GQJZZmxlbmd0aBkeBAAAAj5qdW1iAAAAJ2p1bWRjMmNsABEAEIAAAKoAOJtxA2MycGEuY2xhaW0udjIAAAACD2Nib3KlY2FsZ2ZzaGEyNTZpc2lnbmF0dXJleE1zZWxmI2p1bWJmPS9jMnBhL3VybjpjMnBhOmJkY2U0NGU2LWQ3ODUtNGViNC1iZjc1LWI3ZjNhNWRiNzU5Ni9jMnBhLnNpZ25hdHVyZWppbnN0YW5jZUlEeCx4bXA6aWlkOjAwNzU5NjVmLTdmZGEtNDE3ZC1hMjU2LWZmZjY3MTNhYmUwOXJjcmVhdGVkX2Fzc2VydGlvbnODomN1cmx4LXNlbGYjanVtYmY9YzJwYS5hc3NlcnRpb25zL2MycGEuaW5ncmVkaWVudC52M2RoYXNoWCAtWqpOBstko9E6h0dya4vTmDN1BzAEgAiRvwftwr44WaJjdXJseCpzZWxmI2p1bWJmPWMycGEuYXNzZXJ0aW9ucy9jMnBhLmFjdGlvbnMudjJkaGFzaFggTz58tvfFWxJxrFvLAHHNpnJ1oNNLkvODPdKvBl2PxnOiY3VybHgpc2VsZiNqdW1iZj1jMnBhLmFzc2VydGlvbnMvYzJwYS5oYXNoLmRhdGFkaGFzaFgggSVVH2XwWPnobuCU1tZetRLzwtpIFLe5Ch/9m9pgfL50Y2xhaW1fZ2VuZXJhdG9yX2luZm+jZG5hbWVvQW50aHJvcGljIEZpbGVzZ3ZlcnNpb25lMS4wLjBrc3BlY1ZlcnNpb25lMi40LjAAABA4anVtYgAAAChqdW1kYzJjcwARABCAAACqADibcQNjMnBhLnNpZ25hdHVyZQAAABAIY2JvctKEWQISogEmGCFZAgowggIGMIIBjaADAgECAhRA5aAK7sI50L64g/oGQgU9Z1UTADAKBggqhkjOPQQDAzBJMRcwFQYDVQQKEw5BbnRocm9waWMsIFBCQzEuMCwGA1UEAxMlQW50aHJvcGljIENvbnRlbnQgQ3JlZGVudGlhbHMgUm9vdCBDQTAeFw0yNjA4MDcxODQzNTZaFw0yODA4MDYxOTQzNTZaMEQxFzAVBgNVBAoTDkFudGhyb3BpYywgUEJDMSkwJwYDVQQDEyBBbnRocm9waWMgQ2xhdWRlIENvbnRlbnQgU2lnbmluZzBZMBMGByqGSM49AgEGCCqGSM49AwEHA0IABJh6CmvLUBgFFNU0vUKlOVtE6djd17L5SuwX0LemFisBM3dkd/3cyjxFA3Qo5S46fX0/ihY0VZ7mfb9KF703t5OjWDBWMA4GA1UdDwEB/wQEAwIHgDAVBgNVHSUEDjAMBgorBgEEAYPoXgIBMAwGA1UdEwEB/wQCMAAwHwYDVR0jBBgwFoAUzlHiBIFOZFsj+OPEz5o+nMHXXMIwCgYIKoZIzj0EAwMDZwAwZAIwMXMdFJ4BetLLVY7ORuE9noqbbAZOZn/aArXyTwFAZfKrPzxF2vPoJNf1+UCdg1XGAjBwX1zd9WGqYkqmL5SFqw1QySjr1zJfpJM9+1rdDwSPLMOPOjKuiXjoU/pUUeG9RwmhY3BhZFkNngAAAAAAAAAAAAAAAAAAAAAAAAAAAAAAAAAAAAAAAAAAAAAAAAAAAAAAAAAAAAAAAAAAAAAAAAAAAAAAAAAAAAAAAAAAAAAAAAAAAAAAAAAAAAAAAAAAAAAAAAAAAAAAAAAAAAAAAAAAAAAAAAAAAAAAAAAAAAAAAAAAAAAAAAAAAAAAAAAAAAAAAAAAAAAAAAAAAAAAAAAAAAAAAAAAAAAAAAAAAAAAAAAAAAAAAAAAAAAAAAAAAAAAAAAAAAAAAAAAAAAAAAAAAAAAAAAAAAAAAAAAAAAAAAAAAAAAAAAAAAAAAAAAAAAAAAAAAAAAAAAAAAAAAAAAAAAAAAAAAAAAAAAAAAAAAAAAAAAAAAAAAAAAAAAAAAAAAAAAAAAAAAAAAAAAAAAAAAAAAAAAAAAAAAAAAAAAAAAAAAAAAAAAAAAAAAAAAAAAAAAAAAAAAAAAAAAAAAAAAAAAAAAAAAAAAAAAAAAAAAAAAAAAAAAAAAAAAAAAAAAAAAAAAAAAAAAAAAAAAAAAAAAAAAAAAAAAAAAAAAAAAAAAAAAAAAAAAAAAAAAAAAAAAAAAAAAAAAAAAAAAAAAAAAAAAAAAAAAAAAAAAAAAAAAAAAAAAAAAAAAAAAAAAAAAAAAAAAAAAAAAAAAAAAAAAAAAAAAAAAAAAAAAAAAAAAAAAAAAAAAAAAAAAAAAAAAAAAAAAAAAAAAAAAAAAAAAAAAAAAAAAAAAAAAAAAAAAAAAAAAAAAAAAAAAAAAAAAAAAAAAAAAAAAAAAAAAAAAAAAAAAAAAAAAAAAAAAAAAAAAAAAAAAAAAAAAAAAAAAAAAAAAAAAAAAAAAAAAAAAAAAAAAAAAAAAAAAAAAAAAAAAAAAAAAAAAAAAAAAAAAAAAAAAAAAAAAAAAAAAAAAAAAAAAAAAAAAAAAAAAAAAAAAAAAAAAAAAAAAAAAAAAAAAAAAAAAAAAAAAAAAAAAAAAAAAAAAAAAAAAAAAAAAAAAAAAAAAAAAAAAAAAAAAAAAAAAAAAAAAAAAAAAAAAAAAAAAAAAAAAAAAAAAAAAAAAAAAAAAAAAAAAAAAAAAAAAAAAAAAAAAAAAAAAAAAAAAAAAAAAAAAAAAAAAAAAAAAAAAAAAAAAAAAAAAAAAAAAAAAAAAAAAAAAAAAAAAAAAAAAAAAAAAAAAAAAAAAAAAAAAAAAAAAAAAAAAAAAAAAAAAAAAAAAAAAAAAAAAAAAAAAAAAAAAAAAAAAAAAAAAAAAAAAAAAAAAAAAAAAAAAAAAAAAAAAAAAAAAAAAAAAAAAAAAAAAAAAAAAAAAAAAAAAAAAAAAAAAAAAAAAAAAAAAAAAAAAAAAAAAAAAAAAAAAAAAAAAAAAAAAAAAAAAAAAAAAAAAAAAAAAAAAAAAAAAAAAAAAAAAAAAAAAAAAAAAAAAAAAAAAAAAAAAAAAAAAAAAAAAAAAAAAAAAAAAAAAAAAAAAAAAAAAAAAAAAAAAAAAAAAAAAAAAAAAAAAAAAAAAAAAAAAAAAAAAAAAAAAAAAAAAAAAAAAAAAAAAAAAAAAAAAAAAAAAAAAAAAAAAAAAAAAAAAAAAAAAAAAAAAAAAAAAAAAAAAAAAAAAAAAAAAAAAAAAAAAAAAAAAAAAAAAAAAAAAAAAAAAAAAAAAAAAAAAAAAAAAAAAAAAAAAAAAAAAAAAAAAAAAAAAAAAAAAAAAAAAAAAAAAAAAAAAAAAAAAAAAAAAAAAAAAAAAAAAAAAAAAAAAAAAAAAAAAAAAAAAAAAAAAAAAAAAAAAAAAAAAAAAAAAAAAAAAAAAAAAAAAAAAAAAAAAAAAAAAAAAAAAAAAAAAAAAAAAAAAAAAAAAAAAAAAAAAAAAAAAAAAAAAAAAAAAAAAAAAAAAAAAAAAAAAAAAAAAAAAAAAAAAAAAAAAAAAAAAAAAAAAAAAAAAAAAAAAAAAAAAAAAAAAAAAAAAAAAAAAAAAAAAAAAAAAAAAAAAAAAAAAAAAAAAAAAAAAAAAAAAAAAAAAAAAAAAAAAAAAAAAAAAAAAAAAAAAAAAAAAAAAAAAAAAAAAAAAAAAAAAAAAAAAAAAAAAAAAAAAAAAAAAAAAAAAAAAAAAAAAAAAAAAAAAAAAAAAAAAAAAAAAAAAAAAAAAAAAAAAAAAAAAAAAAAAAAAAAAAAAAAAAAAAAAAAAAAAAAAAAAAAAAAAAAAAAAAAAAAAAAAAAAAAAAAAAAAAAAAAAAAAAAAAAAAAAAAAAAAAAAAAAAAAAAAAAAAAAAAAAAAAAAAAAAAAAAAAAAAAAAAAAAAAAAAAAAAAAAAAAAAAAAAAAAAAAAAAAAAAAAAAAAAAAAAAAAAAAAAAAAAAAAAAAAAAAAAAAAAAAAAAAAAAAAAAAAAAAAAAAAAAAAAAAAAAAAAAAAAAAAAAAAAAAAAAAAAAAAAAAAAAAAAAAAAAAAAAAAAAAAAAAAAAAAAAAAAAAAAAAAAAAAAAAAAAAAAAAAAAAAAAAAAAAAAAAAAAAAAAAAAAAAAAAAAAAAAAAAAAAAAAAAAAAAAAAAAAAAAAAAAAAAAAAAAAAAAAAAAAAAAAAAAAAAAAAAAAAAAAAAAAAAAAAAAAAAAAAAAAAAAAAAAAAAAAAAAAAAAAAAAAAAAAAAAAAAAAAAAAAAAAAAAAAAAAAAAAAAAAAAAAAAAAAAAAAAAAAAAAAAAAAAAAAAAAAAAAAAAAAAAAAAAAAAAAAAAAAAAAAAAAAAAAAAAAAAAAAAAAAAAAAAAAAAAAAAAAAAAAAAAAAAAAAAAAAAAAAAAAAAAAAAAAAAAAAAAAAAAAAAAAAAAAAAAAAAAAAAAAAAAAAAAAAAAAAAAAAAAAAAAAAAAAAAAAAAAAAAAAAAAAAAAAAAAAAAAAAAAAAAAAAAAAAAAAAAAAAAAAAAAAAAAAAAAAAAAAAAAAAAAAAAAAAAAAAAAAAAAAAAAAAAAAAAAAAAAAAAAAAAAAAAAAAAAAAAAAAAAAAAAAAAAAAAAAAAAAAAAAAAAAAAAAAAAAAAAAAAAAAAAAAAAAAAAAAAAAAAAAAAAAAAAAAAAAAAAAAAAAAAAAAAAAAAAAAAAAAAAAAAAAAAAAAAAAAAAAAAAAAAAAAAAAAAAAAAAAAAAAAAAAAAAAAAAAAAAAAAAAAAAAAAAAAAAAAAAAAAAAAAAAAAAAAAAAAAAAAAAAAAAAAAAAAAAAAAAAAAAAAAAAAAAAAAAAAAAAAAAAAAAAAAAAAAAAAAAAAAAAAAAAAAAAAAAAAAAAAAAAAAAAAAAAAAAAAAAAAAAAAAAAAAAAAAAAAAAAAAAAAAAAAAAAAAAAAAAAAAAAAAAAAAAAAAAAAAAAAAAAAAAAAAAAAAAAAAAAAAAAAAAAAAAAAAAAAAAAAAAAAAAAAAAAAAAAAAAAAAAAAAAAAAAAAAAAAAAAAAAAAAAAAAAAAAAAAAAAAAAAAAAAAAAAAAAAAAAAAAAAAAAAAAAAAAAAAAAAAAAAAAAAAAAAAAAAAAAAAAAAAAAAAAAAAAAAAAAAAAAAAAAAAAAAAAAAAAAAAAAAAAAAAAAAAAAAAAAAAAAAAAAAAAAAAAAAAAAAAAAAAAAAAAAAAAAAAAAAAAAAAAAAAAAAAAAAAAAAAAAAAAAAAAAAAAAAAAAAAAAAAAAAAAAAAAAAAAAAAAAAAAAAAAAAAAAAAAAAAAAAAAAAAAAAAAAAAAAAAAAAAAAAAAAAAAAAAAAAAAAAAAAAAAAAAAAAAAAAAAAAAAAAAAAAAAAAAAAAAAAAAAAAAAAAAAAAAAAAAAAAAAAAAAAAAAAAAAAAAAAAAAAAAAAAAAAAAAAAAAAAAAAAAAAAAAAAAAAAAAAAAAAAAAAAAAAAAAAAAAAAAAAAAAAAAAAAAAAAAAAAAAAAAAAAAAAAAAAAAAAAAAAAAAAAAAAAAAAAAAAAAAAAAAAAAAAAAAAAAAAAAAAAAAAAAAAAAAAAAAAAAAAAAAAAAAAAAAAAAAAAAAAAAAAAAAAAAAAAAAAAAAAAAAAAAAAAAAAAAAAAAAAAAAAAAAAAAAAAAAAAAAAAAAAAAAAAAAAAAAAAAAAAAAAAAAAAAAAAAAAAAAAAAAAAAAAAAAAAAAAAAAAAAAAAAAAAAAAAAAAAAAAAAAAAAAAAAAAAAAAAAAAAAAAAAAAAAAAAAAAAAAAAAAAAAAAAAAAAAAAAAAAAAAAAAAAAAAAAAAAAAAAAAAAAAAAAAAAAAAAAAAAAAAAAAAAAAAAAAAAAAAAAAAAAAAAAAAAAAAAAAAAAAAAAAAAAAAAAAAAAAAAAAAAAAAAAAAAAAAAAAAAAAAAAAAAAAAAAAAAAAAAAAAAAAAAAAAAAAAAAAAAAAAAAAAAAAAAAAAAAAAAAAAAAAAAAAAAAAAAAAAAAAAAAAAAAAAAAAAAAAAAAAAAAAAAAAAAAAAAAAAAAAAAAAAAAAAAAAAAAAAAAAAAAAAAAAAAAAAAAAAAAAAAAAAAAAAAAAAAAAAAAAAAAAAAAAAAAAAAAAAAAAAAAAAAAAAAAAAAAAAAAAAAAAAAAAAAAAAAAAAAAAAAAAAAAAAAAAAAAAAAAAAAAAAAAAAAAAAAAAAAAAAAAAAAAAAAAAAAAAAAAAAAAAAAAAAAAAAAAAAAAAAAAAAAAAAAAAAAAAAAAAAAAAAAAAAPZYQNJQYK+Pw0SX3HXoB9qeDLeMNM0f/w6eyvMVJ2PV4GeMUcE7XyEKDr0gBnQvZ3vZbdAkKzIYQujgFyA1oTmFsEg=</c2pa:manifest></metadata><sodipodi:namedview
     id="namedview1"
     pagecolor="#ffffff"
     bordercolor="#999999"
     borderopacity="1"
     inkscape:showpageshadow="2"
     inkscape:pageopacity="0"
     inkscape:pagecheckerboard="0"
     inkscape:deskcolor="#d1d1d1"
     inkscape:document-units="px"
     inkscape:zoom="0.5"
     inkscape:cx="146"
     inkscape:cy="13"
     inkscape:current-layer="g27" /><defs
     id="defs1" /><g
     inkscape:label="Layer 1"
     inkscape:groupmode="layer"
     id="layer1"><g
       id="g27"
       inkscape:label="design-2"
       transform="rotate(-0.19845905,1763.9807,2079.1068)"><g
         id="g21"
         inkscape:label="drum"
         transform="matrix(2.0640965,0,0,2.0640965,-331.55542,-231.58641)"
         style="fill:#420505;fill-opacity:1"><g
           id="path28"
           style="opacity:1;fill:#420505;fill-opacity:1"><path
             id="path30"
             style="baseline-shift:baseline;display:inline;overflow:visible;vector-effect:none;fill:#420505;fill-opacity:1;fill-rule:evenodd;stroke-miterlimit:7.6;stroke-dashoffset:69;paint-order:fill markers stroke;enable-background:accumulate;stop-color:#000000;stop-opacity:1"
             d="m 287.71875,139.00391 c -52.29762,2e-4 -94.69316,42.39574 -94.69336,94.69336 2e-4,52.29761 42.39575,94.69315 94.69336,94.69335 52.29761,-2e-4 94.69316,-42.39574 94.69336,-94.69335 -3e-4,-9.05253 -3.55394,-26.38594 -3.55394,-26.38594 -8.75118,-32.76563 -36.97946,-58.70605 -70.66798,-66.245 0,0 -13.4168,-2.06267 -20.47144,-2.06242 z m -11.125,2.8164 14.38086,16.04102 9.22277,11.99025 14.40418,-5.86916 24.17383,-7.99609 -0.91016,22.71679 0.27784,15.57851 15.53271,6.59532 23.86719,7.19141 -14.79688,16.26172 -11.75211,12.00461 10.16032,13.98172 11.66797,19.26757 -21.39063,4.95118 -15.07427,3.19014 -2.07221,16.25517 -3.88868,22.44922 -20.50781,-10.07617 -14.44563,-8.1505 -11.36296,10.27159 -17.5,16.44141 -8.3086,-21.56641 -5.05039,-16.47621 -17.75429,1.98012 -22.62696,0.70703 7.07032,-20.6836 5.84004,-14.36665 -13.08809,-11.26616 -18.38477,-15.02539 19.97657,-10.7832 12.59389,-7.27066 -3.93178,-17.65512 -4.59766,-22.62696 21.97421,4.39015 17.5713,3.1472 8.26225,-16.72003 z"
             sodipodi:nodetypes="cccccccccccccccccccccccccccccccccccccccccccc" /><path
             style="baseline-shift:baseline;display:none;overflow:visible;vector-effect:none;fill:#420505;fill-opacity:1;fill-rule:evenodd;stroke-miterlimit:7.6;stroke-dashoffset:69;paint-order:fill markers stroke;enable-background:accumulate;stop-color:#000000;stop-opacity:1"
             d="m 275.39844,137.37109 c -11.65142,2.74595 -23.80198,5.31111 -34.18946,10.98828 l -1.10933,0.67383 c -8.59629,4.84896 -16.34664,10.9826 -23.06641,18.11719 l -1.48828,1.63672 c -6.62431,7.35971 -12.14271,15.70535 -16.28906,24.83398 l -0.47852,0.99024 c -4.44495,10.09012 -7.16268,21.08011 -7.92578,32.61523 l -0.0684,1.36719 c -0.0887,1.70106 -0.2578,3.38051 -0.25781,5.10352 4e-5,9.42189 1.41299,18.50362 3.91797,27.12109 l 0.45898,1.78125 c 3.25831,10.46315 8.32352,20.10266 14.69336,28.7207 l 0.61524,0.82226 c 6.61501,8.75552 14.60777,16.40171 23.75976,22.49414 l 0.17185,0.11328 0.23047,0.13086 c 9.27015,6.10675 19.65694,10.60984 30.77148,13.26172 l 1.29688,0.33398 c 6.85658,1.53533 13.95995,2.41404 21.27734,2.41406 16.01565,-6e-5 31.09099,-3.94866 44.41602,-10.82031 l 0.10547,-0.0488 0.0801,-0.041 c 29.41071,-15.24612 49.98297,-45.04671 52.26758,-79.86524 l 0.0664,-1.30468 c 0.0891,-1.70426 0.2578,-3.38699 0.25781,-5.11328 -3.1e-4,-9.29152 -1.00127,-18.53601 -3.95703,-27.44922 l -1.25586,-4.26368 -20.58594,22.625 17.56641,14.18946 -19.00586,10.5957 11.22265,18.53125 -20.28515,4.69531 3.21094,21.10547 -19.5918,-2.5332 -3.72656,21.52148 -19.66993,-9.66406 -9.88281,18.25977 -14.71875,-16.41016 -16.65625,15.65039 -7.85937,-20.4043 -21.00391,7.79102 -0.84375,-21.66016 -21.49414,0.67188 6.69922,-19.59766 -21.18945,-7.5664 14.33203,-16.86329 -17.4668,-14.27734 18.91406,-10.20898 -11.50976,-20.81836 19.73437,-3.03516 -4.4043,-21.67187 22.95313,3.5957 0.50977,-21.04102 19.02343,8.36328 12.88477,-19.57617 13.85351,17.27344 23.13672,-21.56445 -4.60742,-1.04492 c -7.06122,-1.603 -14.27865,-2.41237 -21.51953,-2.41211 -3.45619,1e-5 -8.19247,0.21878 -10.22852,0.54687 -2.03605,0.32809 -1.40522,0.15848 -2.09181,0.32029 z m 12.32031,4.13282 c 5.22639,-1.9e-4 10.4191,0.58639 15.56445,1.46875 l -12.04297,11.22265 -9.91992,-12.36719 c 2.12287,-0.1459 4.23829,-0.32421 6.39844,-0.32421 z m -16.01367,1.47851 -9.58985,14.56836 -14.9414,-6.56836 c 7.64746,-3.75355 15.86892,-6.48213 24.53125,-8 z m -31.74805,11.95313 -0.38086,15.74609 -16.60156,-2.60156 c 5.09949,-5.03192 10.82497,-9.40421 16.98242,-13.14453 z m -23.18555,19.88281 3.17383,15.61914 -14.72461,2.26562 c 3.18817,-6.40733 7.02219,-12.43282 11.55078,-17.88476 z m -14.89062,25.40234 8.96484,16.21485 -14.85351,8.01757 c 0.8433,-8.48238 2.90686,-16.58675 5.88867,-24.23242 z m 175.26953,11.99219 c 1.69231,7.04568 2.76148,14.22746 2.76172,21.48438 0,0.41673 -0.057,0.81895 -0.0625,1.23437 l -13.4707,-10.88086 z m -181.56445,20.30469 13.52148,11.04883 -10.71289,12.60351 c -1.80597,-7.20508 -2.86911,-14.70475 -2.86914,-22.47265 0,-0.39829 0.0555,-0.78261 0.0606,-1.17969 z m 183.85742,10.46484 c -0.81824,8.19371 -2.79265,16.02608 -5.61133,23.44336 l -9.19726,-15.1875 z m -178.43945,21.79688 15.74218,5.62304 -5.20507,15.22461 c -4.37191,-6.4036 -7.87681,-13.42187 -10.53711,-20.84765 z m 170.26367,7.73047 c -3.72036,7.99965 -8.53438,15.36352 -14.28321,21.91601 l -2.73242,-17.97656 z m -138.20313,18.91992 0.66016,16.90234 c -6.49394,-4.70479 -12.39193,-10.17327 -17.45508,-16.37695 z m 103.27539,5.33789 16.56836,2.14062 c -5.77838,5.77648 -12.36156,10.72811 -19.5039,14.8125 z m -79.51367,9.78515 6.11719,15.87696 c -8.04924,-2.24108 -15.63025,-5.54597 -22.62891,-9.75391 z m 54.11719,3.10352 15.51758,7.625 c -7.38349,3.4261 -15.28331,5.88628 -23.57227,7.25977 z m -27.01758,2.39258 12.04102,13.42578 c -2.72146,0.24129 -5.46349,0.416 -8.24805,0.41601 -5.75361,-2e-5 -11.35957,-0.59485 -16.82031,-1.60156 z"
             id="path31"
             sodipodi:nodetypes="cccccccccccccccccccccccccccccccccccccccccccccccccccccccccccczacccccccccccccccccccccccccccccsscccccccccccccccccccccccccccccccsccc" /></g><circle
           style="opacity:1;fill:#420505;fill-opacity:1;fill-rule:evenodd;stroke:none;stroke-width:14.2403;stroke-linecap:round;stroke-miterlimit:7.8;stroke-opacity:1;paint-order:markers stroke fill"
           id="path1-5-1-2"
           cx="287.39676"
           cy="232.83115"
           r="46.477768"
           inkscape:label="inner-drum" /></g></g></g></svg>
